<?xml version="1.0" encoding="UTF-8" standalone="no" ?>
<svg width="900" height="800" version="1.1" xmlns="http://www.w3.org/2000/svg">
    <line x1="474" y1="352" x2="474" y2="352" stroke="rgb(0,0,0)" stroke-width="1" />
    <ellipse cx="403" cy="300" rx="44" ry="149" fill="none" stroke="rgb(0,0,0)" stroke-width="1" />
    <rect x="322" y="158" width="208" height="367" fill="none" stroke="rgb(0,0,0)" stroke-width="1" />
    <rect x="588" y="433" width="0" height="0" fill="none" stroke="rgb(0,0,0)" stroke-width="1" />
    <ellipse cx="423" cy="321" rx="272" ry="79" fill="none" stroke="rgb(0,0,0)" stroke-width="1" />
    <polygon fill="none" points="667,66 717,146 593,146 546,36 641,93 " stroke="rgb(0,0,0)" stroke-width="1" />
    <polygon fill="none" points="649,475 598,340 " stroke="rgb(0,0,0)" stroke-width="1" />
    <polygon fill="none" points="293,573 " stroke="rgb(0,0,0)" stroke-width="1" />
    <polygon fill="none" points="48,213 " stroke="rgb(0,0,0)" stroke-width="1" />
    <line x1="516" y1="135" x2="768" y2="317" stroke="rgb(0,0,0)" stroke-width="1" />
    <rect x="211" y="87" width="254" height="291" fill="none" stroke="rgb(255,0,0)" stroke-width="5" stroke-dasharray="15,5,5,5,5,5" />
    <line x1="521" y1="180" x2="191" y2="420" stroke="rgb(0,0,0)" stroke-width="1" />
    <polygon fill="none" points="91,10 537,494 561,114 150,9 76,550 362,584 429,405 " stroke="rgb(0,0,0)" stroke-width="1" />
    <line x1="300" y1="129" x2="129" y2="444" stroke="rgb(0,0,0)" stroke-width="1" />
    <path type="bezier" stroke="rgb(255,0,0)" stroke-width="5" fill="none" d="M 203 209 C 299 46 826 282 895 207" />
    <line x1="225" y1="112" x2="328" y2="443" stroke="rgb(0,0,0)" stroke-width="1" />
    <path type="bezier" stroke="rgb(255,0,0)" stroke-width="5" fill="none" d="M 805 23 C 868 50 745 60 811 139" />
</svg>
